<mxfile host="65bd71144e">
    <diagram id="" name="Page-1">
        <mxGraphModel dx="3380" dy="3486" grid="1" gridSize="10" guides="1" tooltips="1" connect="1" arrows="1" fold="1" page="1" pageScale="1" pageWidth="827" pageHeight="1169" math="1" shadow="0">
            <root>
                <mxCell id="0"/>
                <mxCell id="1" parent="0"/>
                <mxCell id="10" value="" style="edgeStyle=segmentEdgeStyle;endArrow=classic;html=1;curved=0;rounded=0;endSize=8;startSize=8;strokeWidth=10;startArrow=classic;startFill=1;" parent="1" edge="1">
                    <mxGeometry width="50" height="50" relative="1" as="geometry">
                        <mxPoint x="2040" y="400" as="sourcePoint"/>
                        <mxPoint x="-40" y="-120" as="targetPoint"/>
                    </mxGeometry>
                </mxCell>
                <mxCell id="11" value="Kernel" style="text;strokeColor=none;fillColor=none;html=1;fontSize=51;fontStyle=1;verticalAlign=middle;align=center;fontFamily=Times New Roman;" parent="1" vertex="1">
                    <mxGeometry x="-280" y="-130" width="200" height="80" as="geometry"/>
                </mxCell>
                <mxCell id="12" value="Time" style="text;strokeColor=none;fillColor=none;html=1;fontSize=51;fontStyle=1;verticalAlign=middle;align=center;fontFamily=Times New Roman;" parent="1" vertex="1">
                    <mxGeometry x="1920" y="440" width="200" height="80" as="geometry"/>
                </mxCell>
                <mxCell id="2" value="vec_add" style="rounded=1;whiteSpace=wrap;html=1;fontSize=51;fontFamily=Courier New;fillColor=#fad7ac;strokeColor=default;fontColor=#000000;strokeWidth=3;" parent="1" vertex="1">
                    <mxGeometry x="40" width="776.63" height="160" as="geometry"/>
                </mxCell>
                <mxCell id="3" value="" style="rounded=0;whiteSpace=wrap;html=1;strokeColor=none;fillColor=none;" parent="1" vertex="1">
                    <mxGeometry x="40" y="160" width="769.05" height="100" as="geometry"/>
                </mxCell>
                <mxCell id="4" value="matrix_mul" style="rounded=1;whiteSpace=wrap;html=1;fontSize=51;fontFamily=Courier New;fillColor=#b0e3e6;strokeColor=default;fontColor=#000000;strokeWidth=3;" parent="1" vertex="1">
                    <mxGeometry x="809.05" y="160" width="1062.48" height="160" as="geometry"/>
                </mxCell>
                <mxCell id="13" value="" style="endArrow=none;dashed=1;html=1;fontFamily=Courier New;fontSize=14;strokeWidth=5;" edge="1" parent="1">
                    <mxGeometry width="50" height="50" relative="1" as="geometry">
                        <mxPoint x="40" y="400" as="sourcePoint"/>
                        <mxPoint x="40" y="-80" as="targetPoint"/>
                    </mxGeometry>
                </mxCell>
                <mxCell id="14" value="" style="endArrow=none;dashed=1;html=1;fontFamily=Courier New;fontSize=14;strokeWidth=5;" edge="1" parent="1">
                    <mxGeometry width="50" height="50" relative="1" as="geometry">
                        <mxPoint x="809.05" y="400" as="sourcePoint"/>
                        <mxPoint x="809.05" y="-80" as="targetPoint"/>
                    </mxGeometry>
                </mxCell>
                <mxCell id="15" value="" style="endArrow=none;dashed=1;html=1;fontFamily=Courier New;fontSize=14;strokeWidth=5;" edge="1" parent="1">
                    <mxGeometry width="50" height="50" relative="1" as="geometry">
                        <mxPoint x="816.6300000000002" y="400" as="sourcePoint"/>
                        <mxPoint x="816.6300000000002" y="-80" as="targetPoint"/>
                    </mxGeometry>
                </mxCell>
                <mxCell id="16" value="$$t_0$$" style="text;html=1;strokeColor=none;fillColor=none;align=center;verticalAlign=middle;whiteSpace=wrap;rounded=0;fontFamily=Times New Roman;fontSize=48;" vertex="1" parent="1">
                    <mxGeometry x="-20" y="410" width="120" height="60" as="geometry"/>
                </mxCell>
                <mxCell id="17" value="$$t_1$$" style="text;html=1;strokeColor=none;fillColor=none;align=center;verticalAlign=middle;whiteSpace=wrap;rounded=0;fontFamily=Times New Roman;fontSize=48;" vertex="1" parent="1">
                    <mxGeometry x="740" y="410" width="120" height="60" as="geometry"/>
                </mxCell>
                <mxCell id="18" value="$$t_2$$" style="text;html=1;strokeColor=none;fillColor=none;align=center;verticalAlign=middle;whiteSpace=wrap;rounded=0;fontFamily=Times New Roman;fontSize=48;" vertex="1" parent="1">
                    <mxGeometry x="780" y="410" width="120" height="60" as="geometry"/>
                </mxCell>
            </root>
        </mxGraphModel>
    </diagram>
</mxfile>